<mxfile host="app.diagrams.net" modified="2024-05-29T13:42:13.294Z" agent="Mozilla/5.0 (X11; Ubuntu; Linux x86_64; rv:125.0) Gecko/20100101 Firefox/125.0" etag="kbhCc7lupcsAXdZN7eDP" version="24.4.9" type="github">
  <diagram name="Pagina-1" id="Kk3BQr0RypFoucPu4F-1">
    <mxGraphModel dx="1249" dy="1205" grid="0" gridSize="10" guides="1" tooltips="1" connect="1" arrows="1" fold="1" page="0" pageScale="1" pageWidth="827" pageHeight="1169" math="0" shadow="0">
      <root>
        <mxCell id="0" />
        <mxCell id="1" parent="0" />
        <mxCell id="VfTNHmG4rs7rXMlGlwBh-1" value="" style="shape=folder;fontStyle=1;spacingTop=10;tabWidth=210;tabHeight=30;tabPosition=left;html=1;whiteSpace=wrap;" vertex="1" parent="1">
          <mxGeometry x="-246" y="-105" width="287" height="183" as="geometry" />
        </mxCell>
        <mxCell id="VfTNHmG4rs7rXMlGlwBh-2" value="&lt;font color=&quot;#ffffff&quot;&gt;Interfaccia Ricerca&lt;/font&gt;" style="text;strokeColor=#C73500;fillColor=#fa6800;html=1;align=center;verticalAlign=middle;whiteSpace=wrap;rounded=0;fontSize=16;fontColor=#000000;" vertex="1" parent="1">
          <mxGeometry x="-245" y="-105" width="211" height="30" as="geometry" />
        </mxCell>
        <mxCell id="VfTNHmG4rs7rXMlGlwBh-3" style="edgeStyle=none;curved=1;rounded=0;orthogonalLoop=1;jettySize=auto;html=1;exitX=0.5;exitY=0;exitDx=0;exitDy=0;fontSize=12;startSize=8;endSize=8;" edge="1" parent="1">
          <mxGeometry relative="1" as="geometry">
            <mxPoint x="105" y="-19" as="sourcePoint" />
            <mxPoint x="105" y="-19" as="targetPoint" />
          </mxGeometry>
        </mxCell>
        <mxCell id="VfTNHmG4rs7rXMlGlwBh-4" value="" style="shape=folder;fontStyle=1;spacingTop=10;tabWidth=58;tabHeight=31;tabPosition=left;html=1;whiteSpace=wrap;" vertex="1" parent="1">
          <mxGeometry x="-66" y="206" width="264.5" height="189" as="geometry" />
        </mxCell>
        <mxCell id="VfTNHmG4rs7rXMlGlwBh-5" value="Ricerca" style="text;html=1;align=center;verticalAlign=middle;resizable=0;points=[];autosize=1;fontSize=16;fillColor=#60a917;fontColor=#ffffff;strokeColor=#2D7600;" vertex="1" parent="1">
          <mxGeometry x="-66" y="206" width="72" height="31" as="geometry" />
        </mxCell>
        <mxCell id="VfTNHmG4rs7rXMlGlwBh-6" value="&lt;font color=&quot;#ffffff&quot;&gt;View Ricerca&lt;/font&gt;" style="swimlane;fontStyle=1;align=center;verticalAlign=top;childLayout=stackLayout;horizontal=1;startSize=26;horizontalStack=0;resizeParent=1;resizeParentMax=0;resizeLast=0;collapsible=1;marginBottom=0;whiteSpace=wrap;html=1;fillColor=#fa6800;fontColor=#000000;strokeColor=#C73500;" vertex="1" parent="1">
          <mxGeometry x="-177.5" y="-33" width="150" height="70" as="geometry" />
        </mxCell>
        <mxCell id="VfTNHmG4rs7rXMlGlwBh-7" value="" style="text;strokeColor=#C73500;fillColor=#fa6800;align=left;verticalAlign=top;spacingLeft=4;spacingRight=4;overflow=hidden;rotatable=0;points=[[0,0.5],[1,0.5]];portConstraint=eastwest;whiteSpace=wrap;html=1;fontColor=#000000;" vertex="1" parent="VfTNHmG4rs7rXMlGlwBh-6">
          <mxGeometry y="26" width="150" height="24" as="geometry" />
        </mxCell>
        <mxCell id="VfTNHmG4rs7rXMlGlwBh-8" value="" style="line;strokeWidth=1;fillColor=#fa6800;align=left;verticalAlign=middle;spacingTop=-1;spacingLeft=3;spacingRight=3;rotatable=0;labelPosition=right;points=[];portConstraint=eastwest;strokeColor=#FF8000;fontColor=#000000;" vertex="1" parent="VfTNHmG4rs7rXMlGlwBh-6">
          <mxGeometry y="50" width="150" as="geometry" />
        </mxCell>
        <mxCell id="VfTNHmG4rs7rXMlGlwBh-9" value="&lt;div&gt;&lt;br&gt;&lt;/div&gt;&lt;div&gt;&lt;br&gt;&lt;/div&gt;" style="text;strokeColor=#C73500;fillColor=#fa6800;align=left;verticalAlign=top;spacingLeft=4;spacingRight=4;overflow=hidden;rotatable=0;points=[[0,0.5],[1,0.5]];portConstraint=eastwest;whiteSpace=wrap;html=1;fontColor=#000000;" vertex="1" parent="VfTNHmG4rs7rXMlGlwBh-6">
          <mxGeometry y="50" width="150" height="20" as="geometry" />
        </mxCell>
        <mxCell id="VfTNHmG4rs7rXMlGlwBh-10" value="Ricerca Controller" style="swimlane;fontStyle=1;align=center;verticalAlign=top;childLayout=stackLayout;horizontal=1;startSize=26;horizontalStack=0;resizeParent=1;resizeParentMax=0;resizeLast=0;collapsible=1;marginBottom=0;whiteSpace=wrap;html=1;fillColor=#60a917;fontColor=#ffffff;strokeColor=#2D7600;dashed=1;" vertex="1" parent="1">
          <mxGeometry x="-28.75" y="265" width="170" height="78" as="geometry" />
        </mxCell>
        <mxCell id="VfTNHmG4rs7rXMlGlwBh-11" value="" style="text;strokeColor=#2D7600;fillColor=#60a917;align=left;verticalAlign=top;spacingLeft=4;spacingRight=4;overflow=hidden;rotatable=0;points=[[0,0.5],[1,0.5]];portConstraint=eastwest;whiteSpace=wrap;html=1;fontColor=#ffffff;" vertex="1" parent="VfTNHmG4rs7rXMlGlwBh-10">
          <mxGeometry y="26" width="170" height="24" as="geometry" />
        </mxCell>
        <mxCell id="VfTNHmG4rs7rXMlGlwBh-12" value="" style="line;strokeWidth=1;fillColor=#fa6800;align=left;verticalAlign=middle;spacingTop=-1;spacingLeft=3;spacingRight=3;rotatable=0;labelPosition=right;points=[];portConstraint=eastwest;strokeColor=#FF8000;fontColor=#000000;" vertex="1" parent="VfTNHmG4rs7rXMlGlwBh-10">
          <mxGeometry y="50" width="170" as="geometry" />
        </mxCell>
        <mxCell id="VfTNHmG4rs7rXMlGlwBh-13" value="+ ricerca()" style="text;strokeColor=#2D7600;fillColor=#60a917;align=left;verticalAlign=top;spacingLeft=4;spacingRight=4;overflow=hidden;rotatable=0;points=[[0,0.5],[1,0.5]];portConstraint=eastwest;whiteSpace=wrap;html=1;fontColor=#ffffff;" vertex="1" parent="VfTNHmG4rs7rXMlGlwBh-10">
          <mxGeometry y="50" width="170" height="28" as="geometry" />
        </mxCell>
        <mxCell id="VfTNHmG4rs7rXMlGlwBh-14" style="edgeStyle=none;curved=0;rounded=0;orthogonalLoop=1;jettySize=auto;html=1;exitX=0.5;exitY=1;exitDx=0;exitDy=0;fontSize=12;startSize=8;endSize=8;entryX=0;entryY=0.25;entryDx=0;entryDy=0;dashed=1;strokeColor=none;" edge="1" parent="1" target="VfTNHmG4rs7rXMlGlwBh-10">
          <mxGeometry relative="1" as="geometry">
            <mxPoint x="-219" y="167" as="sourcePoint" />
            <mxPoint x="-219" y="486" as="targetPoint" />
            <Array as="points">
              <mxPoint x="-219" y="387" />
            </Array>
          </mxGeometry>
        </mxCell>
        <mxCell id="VfTNHmG4rs7rXMlGlwBh-15" style="edgeStyle=none;curved=0;rounded=0;orthogonalLoop=1;jettySize=auto;html=1;exitX=0.433;exitY=1;exitDx=0;exitDy=0;fontSize=12;startSize=8;endSize=8;dashed=1;exitPerimeter=0;" edge="1" parent="1" source="VfTNHmG4rs7rXMlGlwBh-9">
          <mxGeometry relative="1" as="geometry">
            <mxPoint x="-189" y="167" as="sourcePoint" />
            <mxPoint x="-30" y="306" as="targetPoint" />
            <Array as="points">
              <mxPoint x="-114" y="242" />
              <mxPoint x="-114" y="306" />
            </Array>
          </mxGeometry>
        </mxCell>
        <mxCell id="VfTNHmG4rs7rXMlGlwBh-16" value="&amp;lt;&amp;lt;use&amp;gt;&amp;gt;" style="edgeLabel;html=1;align=center;verticalAlign=middle;resizable=0;points=[];fontSize=12;" vertex="1" connectable="0" parent="VfTNHmG4rs7rXMlGlwBh-15">
          <mxGeometry x="-0.272" y="-1" relative="1" as="geometry">
            <mxPoint as="offset" />
          </mxGeometry>
        </mxCell>
        <mxCell id="VfTNHmG4rs7rXMlGlwBh-17" value="" style="shape=folder;fontStyle=1;spacingTop=10;tabWidth=210;tabHeight=30;tabPosition=left;html=1;whiteSpace=wrap;" vertex="1" parent="1">
          <mxGeometry x="149" y="-105" width="287" height="183" as="geometry" />
        </mxCell>
        <mxCell id="VfTNHmG4rs7rXMlGlwBh-18" value="&lt;font color=&quot;#ffffff&quot;&gt;Interfaccia SelezioneAbbonamento&lt;br&gt;&lt;/font&gt;" style="text;strokeColor=#C73500;fillColor=#fa6800;html=1;align=center;verticalAlign=middle;whiteSpace=wrap;rounded=0;fontSize=16;fontColor=#000000;" vertex="1" parent="1">
          <mxGeometry x="150" y="-105" width="261" height="30" as="geometry" />
        </mxCell>
        <mxCell id="VfTNHmG4rs7rXMlGlwBh-19" style="edgeStyle=none;curved=1;rounded=0;orthogonalLoop=1;jettySize=auto;html=1;exitX=0.5;exitY=0;exitDx=0;exitDy=0;fontSize=12;startSize=8;endSize=8;" edge="1" parent="1">
          <mxGeometry relative="1" as="geometry">
            <mxPoint x="500" y="-19" as="sourcePoint" />
            <mxPoint x="500" y="-19" as="targetPoint" />
          </mxGeometry>
        </mxCell>
        <mxCell id="VfTNHmG4rs7rXMlGlwBh-20" value="" style="shape=folder;fontStyle=1;spacingTop=10;tabWidth=58;tabHeight=31;tabPosition=left;html=1;whiteSpace=wrap;" vertex="1" parent="1">
          <mxGeometry x="271" y="206" width="264.5" height="189" as="geometry" />
        </mxCell>
        <mxCell id="VfTNHmG4rs7rXMlGlwBh-21" value="SelezioneAbbonamento" style="text;html=1;align=center;verticalAlign=middle;resizable=0;points=[];autosize=1;fontSize=16;fillColor=#60a917;fontColor=#ffffff;strokeColor=#2D7600;" vertex="1" parent="1">
          <mxGeometry x="271" y="206" width="187" height="31" as="geometry" />
        </mxCell>
        <mxCell id="VfTNHmG4rs7rXMlGlwBh-22" value="&lt;font color=&quot;#ffffff&quot;&gt;View SelezioneAbbonamento&lt;br&gt;&lt;/font&gt;" style="swimlane;fontStyle=1;align=center;verticalAlign=top;childLayout=stackLayout;horizontal=1;startSize=26;horizontalStack=0;resizeParent=1;resizeParentMax=0;resizeLast=0;collapsible=1;marginBottom=0;whiteSpace=wrap;html=1;fillColor=#fa6800;fontColor=#000000;strokeColor=#C73500;" vertex="1" parent="1">
          <mxGeometry x="205" y="-33" width="182.5" height="70" as="geometry" />
        </mxCell>
        <mxCell id="VfTNHmG4rs7rXMlGlwBh-23" value="" style="text;strokeColor=#C73500;fillColor=#fa6800;align=left;verticalAlign=top;spacingLeft=4;spacingRight=4;overflow=hidden;rotatable=0;points=[[0,0.5],[1,0.5]];portConstraint=eastwest;whiteSpace=wrap;html=1;fontColor=#000000;" vertex="1" parent="VfTNHmG4rs7rXMlGlwBh-22">
          <mxGeometry y="26" width="182.5" height="24" as="geometry" />
        </mxCell>
        <mxCell id="VfTNHmG4rs7rXMlGlwBh-24" value="" style="line;strokeWidth=1;fillColor=#fa6800;align=left;verticalAlign=middle;spacingTop=-1;spacingLeft=3;spacingRight=3;rotatable=0;labelPosition=right;points=[];portConstraint=eastwest;strokeColor=#FF8000;fontColor=#000000;" vertex="1" parent="VfTNHmG4rs7rXMlGlwBh-22">
          <mxGeometry y="50" width="182.5" as="geometry" />
        </mxCell>
        <mxCell id="VfTNHmG4rs7rXMlGlwBh-25" value="&lt;div&gt;&lt;br&gt;&lt;/div&gt;&lt;div&gt;&lt;br&gt;&lt;/div&gt;" style="text;strokeColor=#C73500;fillColor=#fa6800;align=left;verticalAlign=top;spacingLeft=4;spacingRight=4;overflow=hidden;rotatable=0;points=[[0,0.5],[1,0.5]];portConstraint=eastwest;whiteSpace=wrap;html=1;fontColor=#000000;" vertex="1" parent="VfTNHmG4rs7rXMlGlwBh-22">
          <mxGeometry y="50" width="182.5" height="20" as="geometry" />
        </mxCell>
        <mxCell id="VfTNHmG4rs7rXMlGlwBh-26" value="SelezioneAbbonamento Controller" style="swimlane;fontStyle=1;align=center;verticalAlign=top;childLayout=stackLayout;horizontal=1;startSize=26;horizontalStack=0;resizeParent=1;resizeParentMax=0;resizeLast=0;collapsible=1;marginBottom=0;whiteSpace=wrap;html=1;fillColor=#60a917;fontColor=#ffffff;strokeColor=#2D7600;dashed=1;" vertex="1" parent="1">
          <mxGeometry x="308.25" y="265" width="204.75" height="78" as="geometry" />
        </mxCell>
        <mxCell id="VfTNHmG4rs7rXMlGlwBh-27" value="" style="text;strokeColor=#2D7600;fillColor=#60a917;align=left;verticalAlign=top;spacingLeft=4;spacingRight=4;overflow=hidden;rotatable=0;points=[[0,0.5],[1,0.5]];portConstraint=eastwest;whiteSpace=wrap;html=1;fontColor=#ffffff;" vertex="1" parent="VfTNHmG4rs7rXMlGlwBh-26">
          <mxGeometry y="26" width="204.75" height="24" as="geometry" />
        </mxCell>
        <mxCell id="VfTNHmG4rs7rXMlGlwBh-28" value="" style="line;strokeWidth=1;fillColor=#fa6800;align=left;verticalAlign=middle;spacingTop=-1;spacingLeft=3;spacingRight=3;rotatable=0;labelPosition=right;points=[];portConstraint=eastwest;strokeColor=#FF8000;fontColor=#000000;" vertex="1" parent="VfTNHmG4rs7rXMlGlwBh-26">
          <mxGeometry y="50" width="204.75" as="geometry" />
        </mxCell>
        <mxCell id="VfTNHmG4rs7rXMlGlwBh-29" value="+ seleziona()" style="text;strokeColor=#2D7600;fillColor=#60a917;align=left;verticalAlign=top;spacingLeft=4;spacingRight=4;overflow=hidden;rotatable=0;points=[[0,0.5],[1,0.5]];portConstraint=eastwest;whiteSpace=wrap;html=1;fontColor=#ffffff;" vertex="1" parent="VfTNHmG4rs7rXMlGlwBh-26">
          <mxGeometry y="50" width="204.75" height="28" as="geometry" />
        </mxCell>
        <mxCell id="VfTNHmG4rs7rXMlGlwBh-30" style="edgeStyle=none;curved=0;rounded=0;orthogonalLoop=1;jettySize=auto;html=1;exitX=0.5;exitY=1;exitDx=0;exitDy=0;fontSize=12;startSize=8;endSize=8;entryX=0;entryY=0.25;entryDx=0;entryDy=0;dashed=1;strokeColor=none;" edge="1" parent="1" target="VfTNHmG4rs7rXMlGlwBh-26">
          <mxGeometry relative="1" as="geometry">
            <mxPoint x="179" y="167" as="sourcePoint" />
            <mxPoint x="179" y="486" as="targetPoint" />
            <Array as="points">
              <mxPoint x="179" y="387" />
              <mxPoint x="259" y="344" />
            </Array>
          </mxGeometry>
        </mxCell>
        <mxCell id="VfTNHmG4rs7rXMlGlwBh-35" style="edgeStyle=none;curved=1;rounded=0;orthogonalLoop=1;jettySize=auto;html=1;fontSize=12;startSize=8;endSize=8;" edge="1" parent="1" target="VfTNHmG4rs7rXMlGlwBh-29">
          <mxGeometry relative="1" as="geometry">
            <mxPoint x="270" y="333" as="targetPoint" />
            <mxPoint x="142" y="329" as="sourcePoint" />
          </mxGeometry>
        </mxCell>
        <mxCell id="VfTNHmG4rs7rXMlGlwBh-36" value="" style="shape=folder;fontStyle=1;spacingTop=10;tabWidth=210;tabHeight=30;tabPosition=left;html=1;whiteSpace=wrap;" vertex="1" parent="1">
          <mxGeometry x="513" y="-105" width="287" height="183" as="geometry" />
        </mxCell>
        <mxCell id="VfTNHmG4rs7rXMlGlwBh-37" value="&lt;font color=&quot;#ffffff&quot;&gt;Interfaccia GestionePagamento&lt;/font&gt;" style="text;strokeColor=#C73500;fillColor=#fa6800;html=1;align=center;verticalAlign=middle;whiteSpace=wrap;rounded=0;fontSize=16;fontColor=#000000;" vertex="1" parent="1">
          <mxGeometry x="514" y="-105" width="261" height="30" as="geometry" />
        </mxCell>
        <mxCell id="VfTNHmG4rs7rXMlGlwBh-38" style="edgeStyle=none;curved=1;rounded=0;orthogonalLoop=1;jettySize=auto;html=1;exitX=0.5;exitY=0;exitDx=0;exitDy=0;fontSize=12;startSize=8;endSize=8;" edge="1" parent="1">
          <mxGeometry relative="1" as="geometry">
            <mxPoint x="1057" y="-19" as="sourcePoint" />
            <mxPoint x="1057" y="-19" as="targetPoint" />
          </mxGeometry>
        </mxCell>
        <mxCell id="VfTNHmG4rs7rXMlGlwBh-39" value="" style="shape=folder;fontStyle=1;spacingTop=10;tabWidth=58;tabHeight=31;tabPosition=left;html=1;whiteSpace=wrap;" vertex="1" parent="1">
          <mxGeometry x="643" y="206" width="264.5" height="189" as="geometry" />
        </mxCell>
        <mxCell id="VfTNHmG4rs7rXMlGlwBh-40" value="GestionePagamento" style="text;html=1;align=center;verticalAlign=middle;resizable=0;points=[];autosize=1;fontSize=16;fillColor=#60a917;fontColor=#ffffff;strokeColor=#2D7600;" vertex="1" parent="1">
          <mxGeometry x="643" y="206" width="163" height="31" as="geometry" />
        </mxCell>
        <mxCell id="VfTNHmG4rs7rXMlGlwBh-41" value="&lt;font color=&quot;#ffffff&quot;&gt;View GestionePagamento&lt;/font&gt;" style="swimlane;fontStyle=1;align=center;verticalAlign=top;childLayout=stackLayout;horizontal=1;startSize=26;horizontalStack=0;resizeParent=1;resizeParentMax=0;resizeLast=0;collapsible=1;marginBottom=0;whiteSpace=wrap;html=1;fillColor=#fa6800;fontColor=#000000;strokeColor=#C73500;" vertex="1" parent="1">
          <mxGeometry x="569" y="-33" width="182.5" height="70" as="geometry" />
        </mxCell>
        <mxCell id="VfTNHmG4rs7rXMlGlwBh-42" value="" style="text;strokeColor=#C73500;fillColor=#fa6800;align=left;verticalAlign=top;spacingLeft=4;spacingRight=4;overflow=hidden;rotatable=0;points=[[0,0.5],[1,0.5]];portConstraint=eastwest;whiteSpace=wrap;html=1;fontColor=#000000;" vertex="1" parent="VfTNHmG4rs7rXMlGlwBh-41">
          <mxGeometry y="26" width="182.5" height="24" as="geometry" />
        </mxCell>
        <mxCell id="VfTNHmG4rs7rXMlGlwBh-43" value="" style="line;strokeWidth=1;fillColor=#fa6800;align=left;verticalAlign=middle;spacingTop=-1;spacingLeft=3;spacingRight=3;rotatable=0;labelPosition=right;points=[];portConstraint=eastwest;strokeColor=#FF8000;fontColor=#000000;" vertex="1" parent="VfTNHmG4rs7rXMlGlwBh-41">
          <mxGeometry y="50" width="182.5" as="geometry" />
        </mxCell>
        <mxCell id="VfTNHmG4rs7rXMlGlwBh-44" value="&lt;div&gt;&lt;br&gt;&lt;/div&gt;&lt;div&gt;&lt;br&gt;&lt;/div&gt;" style="text;strokeColor=#C73500;fillColor=#fa6800;align=left;verticalAlign=top;spacingLeft=4;spacingRight=4;overflow=hidden;rotatable=0;points=[[0,0.5],[1,0.5]];portConstraint=eastwest;whiteSpace=wrap;html=1;fontColor=#000000;" vertex="1" parent="VfTNHmG4rs7rXMlGlwBh-41">
          <mxGeometry y="50" width="182.5" height="20" as="geometry" />
        </mxCell>
        <mxCell id="VfTNHmG4rs7rXMlGlwBh-45" value="GestionePagamento Controller" style="swimlane;fontStyle=1;align=center;verticalAlign=top;childLayout=stackLayout;horizontal=1;startSize=26;horizontalStack=0;resizeParent=1;resizeParentMax=0;resizeLast=0;collapsible=1;marginBottom=0;whiteSpace=wrap;html=1;fillColor=#60a917;fontColor=#ffffff;strokeColor=#2D7600;dashed=1;" vertex="1" parent="1">
          <mxGeometry x="680.25" y="265" width="204.75" height="94" as="geometry" />
        </mxCell>
        <mxCell id="VfTNHmG4rs7rXMlGlwBh-46" value="" style="text;strokeColor=#2D7600;fillColor=#60a917;align=left;verticalAlign=top;spacingLeft=4;spacingRight=4;overflow=hidden;rotatable=0;points=[[0,0.5],[1,0.5]];portConstraint=eastwest;whiteSpace=wrap;html=1;fontColor=#ffffff;" vertex="1" parent="VfTNHmG4rs7rXMlGlwBh-45">
          <mxGeometry y="26" width="204.75" height="24" as="geometry" />
        </mxCell>
        <mxCell id="VfTNHmG4rs7rXMlGlwBh-47" value="" style="line;strokeWidth=1;fillColor=#fa6800;align=left;verticalAlign=middle;spacingTop=-1;spacingLeft=3;spacingRight=3;rotatable=0;labelPosition=right;points=[];portConstraint=eastwest;strokeColor=#FF8000;fontColor=#000000;" vertex="1" parent="VfTNHmG4rs7rXMlGlwBh-45">
          <mxGeometry y="50" width="204.75" as="geometry" />
        </mxCell>
        <mxCell id="VfTNHmG4rs7rXMlGlwBh-48" value="&lt;div&gt;+ selezionaMetodoPagamento()&lt;/div&gt;&lt;div&gt;+ effettuaPagamento()&lt;br&gt;&lt;/div&gt;" style="text;strokeColor=#2D7600;fillColor=#60a917;align=left;verticalAlign=top;spacingLeft=4;spacingRight=4;overflow=hidden;rotatable=0;points=[[0,0.5],[1,0.5]];portConstraint=eastwest;whiteSpace=wrap;html=1;fontColor=#ffffff;" vertex="1" parent="VfTNHmG4rs7rXMlGlwBh-45">
          <mxGeometry y="50" width="204.75" height="44" as="geometry" />
        </mxCell>
        <mxCell id="VfTNHmG4rs7rXMlGlwBh-49" style="edgeStyle=none;curved=0;rounded=0;orthogonalLoop=1;jettySize=auto;html=1;exitX=0.5;exitY=1;exitDx=0;exitDy=0;fontSize=12;startSize=8;endSize=8;entryX=0;entryY=0.25;entryDx=0;entryDy=0;dashed=1;strokeColor=none;" edge="1" parent="1" target="VfTNHmG4rs7rXMlGlwBh-45">
          <mxGeometry relative="1" as="geometry">
            <mxPoint x="659" y="167" as="sourcePoint" />
            <mxPoint x="659" y="486" as="targetPoint" />
            <Array as="points">
              <mxPoint x="659" y="387" />
              <mxPoint x="739" y="344" />
            </Array>
          </mxGeometry>
        </mxCell>
        <mxCell id="VfTNHmG4rs7rXMlGlwBh-52" style="edgeStyle=none;curved=1;rounded=0;orthogonalLoop=1;jettySize=auto;html=1;exitX=1;exitY=0.5;exitDx=0;exitDy=0;fontSize=12;startSize=8;endSize=8;entryX=0.003;entryY=0.306;entryDx=0;entryDy=0;entryPerimeter=0;" edge="1" parent="1">
          <mxGeometry relative="1" as="geometry">
            <mxPoint x="512.9999999999998" y="332.54000000000025" as="sourcePoint" />
            <mxPoint x="680.8642500000001" y="332.00399999999996" as="targetPoint" />
          </mxGeometry>
        </mxCell>
        <mxCell id="VfTNHmG4rs7rXMlGlwBh-53" style="edgeStyle=none;curved=0;rounded=0;orthogonalLoop=1;jettySize=auto;html=1;exitX=0.433;exitY=1;exitDx=0;exitDy=0;fontSize=12;startSize=8;endSize=8;dashed=1;exitPerimeter=0;" edge="1" parent="1">
          <mxGeometry relative="1" as="geometry">
            <mxPoint x="225.25" y="37" as="sourcePoint" />
            <mxPoint x="308.25" y="306" as="targetPoint" />
            <Array as="points">
              <mxPoint x="224.25" y="242" />
              <mxPoint x="224.25" y="306" />
            </Array>
          </mxGeometry>
        </mxCell>
        <mxCell id="VfTNHmG4rs7rXMlGlwBh-54" value="&amp;lt;&amp;lt;use&amp;gt;&amp;gt;" style="edgeLabel;html=1;align=center;verticalAlign=middle;resizable=0;points=[];fontSize=12;" vertex="1" connectable="0" parent="VfTNHmG4rs7rXMlGlwBh-53">
          <mxGeometry x="-0.272" y="-1" relative="1" as="geometry">
            <mxPoint as="offset" />
          </mxGeometry>
        </mxCell>
        <mxCell id="VfTNHmG4rs7rXMlGlwBh-55" style="edgeStyle=none;curved=0;rounded=0;orthogonalLoop=1;jettySize=auto;html=1;exitX=0.433;exitY=1;exitDx=0;exitDy=0;fontSize=12;startSize=8;endSize=8;dashed=1;exitPerimeter=0;" edge="1" parent="1">
          <mxGeometry relative="1" as="geometry">
            <mxPoint x="597.25" y="37" as="sourcePoint" />
            <mxPoint x="680.25" y="306" as="targetPoint" />
            <Array as="points">
              <mxPoint x="596.25" y="242" />
              <mxPoint x="596.25" y="306" />
            </Array>
          </mxGeometry>
        </mxCell>
        <mxCell id="VfTNHmG4rs7rXMlGlwBh-56" value="&amp;lt;&amp;lt;use&amp;gt;&amp;gt;" style="edgeLabel;html=1;align=center;verticalAlign=middle;resizable=0;points=[];fontSize=12;" vertex="1" connectable="0" parent="VfTNHmG4rs7rXMlGlwBh-55">
          <mxGeometry x="-0.272" y="-1" relative="1" as="geometry">
            <mxPoint as="offset" />
          </mxGeometry>
        </mxCell>
      </root>
    </mxGraphModel>
  </diagram>
</mxfile>
